<svg xmlns="http://www.w3.org/2000/svg" width="1600" height="900" viewBox="0 0 1600 900">
<defs>
<radialGradient id="g" cx="50%" cy="38%" r="70%">
<stop offset="0%" stop-color="#d19543" stop-opacity=".55"/>
<stop offset="45%" stop-color="#3a1f17" stop-opacity=".9"/>
<stop offset="100%" stop-color="#050407"/>
</radialGradient>
<linearGradient id="floor" x1="0" x2="1" y1="0" y2="1">
<stop offset="0" stop-color="#d19543" stop-opacity=".25"/>
<stop offset=".5" stop-color="#09070a"/>
<stop offset="1" stop-color="#d19543" stop-opacity=".18"/>
</linearGradient>
</defs>
<rect width="1600" height="900" fill="url(#g)"/>
<ellipse cx="800" cy="720" rx="650" ry="150" fill="url(#floor)" opacity=".95"/>
<ellipse cx="800" cy="716" rx="500" ry="105" fill="none" stroke="#d19543" stroke-width="4" opacity=".45"/>
<ellipse cx="800" cy="716" rx="310" ry="64" fill="none" stroke="#d19543" stroke-width="2" opacity=".25"/>
<g opacity=".22" stroke="#d19543" stroke-width="10">
<path d="M170 650 C310 330 450 255 560 212"/>
<path d="M1430 650 C1290 330 1150 255 1040 212"/>
<path d="M405 680 C520 395 620 300 700 245"/>
<path d="M1195 680 C1080 395 980 300 900 245"/>
</g>
<g opacity=".18">
<circle cx="210" cy="170" r="70" fill="#d19543"/>
<circle cx="1390" cy="190" r="90" fill="#d19543"/>
<circle cx="800" cy="140" r="120" fill="#d19543"/>
</g>
<text x="800" y="84" font-family="Cinzel, Georgia, serif" font-size="48" fill="#d19543" text-anchor="middle" opacity=".45">Roman Colosseum</text>
</svg>